<svg width="18" height="18" viewBox="0 0 18 18" fill="none" xmlns="http://www.w3.org/2000/svg">
<path fill-rule="evenodd" clip-rule="evenodd" d="M14.0795 11.9641L17.5611 15.4476C18.1463 16.0333 18.1463 16.9827 17.5611 17.5684C16.9715 18.1438 16.0309 18.1438 15.4414 17.5684L11.9598 14.0857C8.67282 16.2844 4.255 15.6298 1.74603 12.5722C-0.762935 9.51474 -0.544675 5.05162 2.25063 2.25379C5.04594 -0.544039 9.50654 -0.763996 12.5633 1.74526C15.62 4.25452 16.2758 8.67454 14.0795 11.9641ZM13.1283 7.6961C13.1283 4.69326 10.6954 2.25897 7.69415 2.25897C4.69431 2.26227 2.26329 4.69463 2.25999 7.6961C2.25999 10.699 4.69295 13.1332 7.69415 13.1332C10.6954 13.1332 13.1283 10.699 13.1283 7.6961Z" fill="#14121E"/>
</svg>
