<svg width="24" height="22" viewBox="0 0 24 22" fill="none" xmlns="http://www.w3.org/2000/svg">
<path fill-rule="evenodd" clip-rule="evenodd" d="M18.9001 5.94893C20.4882 6.95084 21.9345 8.16168 23.2001 9.54893C23.9412 10.3718 23.9442 11.6205 23.2071 12.4469C20.6451 15.2629 16.4121 18.2469 12.1561 18.2469H11.8561C10.3715 18.2212 8.90678 17.902 7.54607 17.3079L3.40007 21.4539C3.06281 21.79 2.53535 21.8417 2.13926 21.5775C1.74317 21.3133 1.5883 20.8064 1.76907 20.3659C1.77338 20.3616 1.77826 20.3591 1.7831 20.3565C1.78725 20.3543 1.79138 20.3522 1.79507 20.3489L21.2951 0.848932C21.3745 0.76667 21.4338 0.667042 21.4681 0.557932L21.4861 0.539932C21.7371 0.279976 22.1089 0.17572 22.4586 0.267235C22.8082 0.35875 23.0813 0.631795 23.1728 0.981425C23.2643 1.33105 23.16 1.70286 22.9001 1.95393L18.9001 5.94893ZM13.3131 15.2979C14.7503 14.8436 15.8721 13.7114 16.3131 12.2699C16.6247 11.2596 16.5531 10.1699 16.1121 9.20893C16.0764 9.13497 16.007 9.083 15.926 9.06966C15.845 9.05633 15.7625 9.08329 15.7051 9.14193L10.1451 14.7009C10.087 14.7587 10.0604 14.8411 10.074 14.922C10.0875 15.0029 10.1393 15.0722 10.2131 15.1079C11.1866 15.5553 12.2922 15.623 13.3131 15.2979Z" fill="#56545D"/>
<path d="M7.61488 12.4001C7.67732 12.3371 7.70067 12.2452 7.67588 12.1601C7.56468 11.7832 7.50546 11.393 7.49988 11.0001C7.49988 8.51481 9.5146 6.50009 11.9999 6.50009C12.3927 6.50421 12.783 6.56242 13.1599 6.67309C13.2452 6.69763 13.3371 6.67388 13.3999 6.61109L15.3409 4.66909C15.4033 4.60676 15.4289 4.51648 15.4085 4.43064C15.3882 4.3448 15.3247 4.27569 15.2409 4.24809C14.1936 3.91197 13.0997 3.74389 11.9999 3.75009C7.69988 3.69209 3.39988 6.70009 0.812884 9.54909C0.0608332 10.3684 0.0577974 11.6261 0.805884 12.4491C1.83908 13.5803 2.99181 14.5962 4.24388 15.4791C4.34535 15.5492 4.48239 15.537 4.56988 15.4501L7.61488 12.4001Z" fill="#56545D"/>
</svg>
