<svg width="23" height="22" viewBox="0 0 23 22" fill="none" xmlns="http://www.w3.org/2000/svg">
<path fill-rule="evenodd" clip-rule="evenodd" d="M0.5 11C0.5 4.92487 5.42487 0 11.5 0C17.5724 0.00656778 22.4934 4.92759 22.5 11C22.5 17.0751 17.5751 22 11.5 22C5.42487 22 0.5 17.0751 0.5 11ZM2.33333 11C2.33333 16.0626 6.43739 20.1667 11.5 20.1667C16.5603 20.1611 20.6611 16.0603 20.6667 11C20.6667 5.93739 16.5626 1.83333 11.5 1.83333C6.43739 1.83333 2.33333 5.93739 2.33333 11Z" fill="#8492A2"/>
<path d="M16.2263 12.9818C15.8025 12.7057 15.2352 12.8251 14.9585 13.2485C14.1975 14.4188 12.8963 15.1248 11.5004 15.1248C10.1045 15.1248 8.80329 14.4188 8.04229 13.2485C7.76537 12.8243 7.19696 12.7049 6.77271 12.9818C6.34846 13.2587 6.22904 13.8271 6.50596 14.2514C7.60505 15.9424 9.48497 16.9626 11.5018 16.9626C13.5186 16.9626 15.3985 15.9424 16.4976 14.2514C16.6304 14.0471 16.6764 13.7985 16.6254 13.5603C16.5745 13.3221 16.4309 13.1139 16.2263 12.9818Z" fill="#8492A2"/>
<path d="M8.29167 10.5416C8.79793 10.5416 9.20833 10.1312 9.20833 9.62492V6.87492C9.20833 6.36866 8.79793 5.95825 8.29167 5.95825C7.78541 5.95825 7.375 6.36866 7.375 6.87492V9.62492C7.375 10.1312 7.78541 10.5416 8.29167 10.5416Z" fill="#8492A2"/>
<path d="M14.7084 10.5416C15.2147 10.5416 15.6251 10.1312 15.6251 9.62492V6.87492C15.6251 6.36866 15.2147 5.95825 14.7084 5.95825C14.2022 5.95825 13.7917 6.36866 13.7917 6.87492V9.62492C13.7917 10.1312 14.2022 10.5416 14.7084 10.5416Z" fill="#8492A2"/>
</svg>
