<svg width="22" height="15" viewBox="0 0 22 15" fill="none" xmlns="http://www.w3.org/2000/svg">
<path d="M9.50867 14.0341C10.0456 14.5708 10.916 14.5708 11.4529 14.0341L18.0043 7.48265C18.0473 7.43955 18.1057 7.41532 18.1666 7.41532C18.2275 7.41532 18.2858 7.43955 18.3288 7.48265L19.1392 8.29207C19.311 8.46399 19.5442 8.5606 19.7872 8.56065C19.87 8.56102 19.9523 8.54991 20.032 8.52765C20.3493 8.43845 20.5943 8.18575 20.6737 7.86582L21.9726 2.68115C22.0505 2.3688 21.9588 2.03849 21.7311 1.81096C21.5033 1.58343 21.173 1.49202 20.8607 1.57015L15.6751 2.86632C15.3564 2.94734 15.1055 3.19286 15.0176 3.50974C14.9297 3.82662 15.0183 4.1663 15.2497 4.3999L16.0601 5.21023C16.1492 5.29967 16.1492 5.44438 16.0601 5.53382L9.50867 12.0862C9.24977 12.3441 9.10425 12.6946 9.10425 13.0601C9.10425 13.4256 9.24977 13.7761 9.50867 14.0341V14.0341Z" fill="#8492A2"/>
<path d="M10.5765 0.604006L3.8005 6.99776C3.71057 7.08313 3.56894 7.0811 3.4815 6.99317L2.86092 6.37351C2.62746 6.1401 2.28653 6.05026 1.96837 6.13829C1.6502 6.22632 1.40395 6.47863 1.32367 6.79884L0.0274992 11.9844C-0.0407789 12.2582 0.0208117 12.5481 0.194475 12.7705C0.368139 12.9928 0.634525 13.1228 0.916666 13.1229C0.991756 13.1228 1.06656 13.1136 1.13942 13.0954L6.325 11.7993C6.64333 11.7181 6.89387 11.4727 6.98172 11.1562C7.06957 10.8396 6.98129 10.5002 6.75033 10.2666L5.75025 9.26742C5.70674 9.22324 5.68265 9.16352 5.68333 9.10151C5.68411 9.0395 5.71028 8.98052 5.75575 8.93834L12.4667 2.60326C12.841 2.27039 13.0047 1.76027 12.894 1.27172C12.7832 0.783176 12.4155 0.39352 11.9342 0.254626C11.4529 0.115733 10.9342 0.249583 10.5802 0.604006H10.5765Z" fill="#8492A2"/>
</svg>
