<svg width="36" height="6" viewBox="0 0 36 6" fill="none" xmlns="http://www.w3.org/2000/svg">
<path fill-rule="evenodd" clip-rule="evenodd" d="M3 6C4.65685 6 6 4.65685 6 3C6 1.34315 4.65685 0 3 0C1.34315 0 0 1.34315 0 3C0 4.65685 1.34315 6 3 6Z" fill="#56545D"/>
<path fill-rule="evenodd" clip-rule="evenodd" d="M13 6C14.6569 6 16 4.65685 16 3C16 1.34315 14.6569 0 13 0C11.3431 0 10 1.34315 10 3C10 4.65685 11.3431 6 13 6Z" fill="#56545D"/>
<path fill-rule="evenodd" clip-rule="evenodd" d="M23 6C24.6569 6 26 4.65685 26 3C26 1.34315 24.6569 0 23 0C21.3431 0 20 1.34315 20 3C20 4.65685 21.3431 6 23 6Z" fill="#56545D"/>
<path fill-rule="evenodd" clip-rule="evenodd" d="M33 6C34.6569 6 36 4.65685 36 3C36 1.34315 34.6569 0 33 0C31.3431 0 30 1.34315 30 3C30 4.65685 31.3431 6 33 6Z" fill="#56545D"/>
</svg>
