<svg width="18" height="18" viewBox="0 0 18 18" fill="none" xmlns="http://www.w3.org/2000/svg">
<path d="M14.4 8.27997C14.0024 8.27997 13.68 8.60233 13.68 8.99997V15.12C13.68 15.5176 13.3576 15.84 12.96 15.84H2.16C1.76236 15.84 1.44 15.5176 1.44 15.12V2.87997C1.44 2.48233 1.76236 2.15997 2.16 2.15997H9.36C9.75764 2.15997 10.08 1.83762 10.08 1.43997C10.08 1.04233 9.75764 0.719971 9.36 0.719971H2.16C0.967065 0.719971 0 1.68704 0 2.87997V15.12C0 16.3129 0.967065 17.28 2.16 17.28H12.96C14.1529 17.28 15.12 16.3129 15.12 15.12V8.99997C15.12 8.60233 14.7976 8.27997 14.4 8.27997Z" fill="#14121E"/>
<path d="M16.8589 0.419014C16.2937 -0.13609 15.3879 -0.13609 14.8227 0.419014L7.41609 7.82709C7.38152 7.86158 7.35433 7.90273 7.33617 7.94805L6.31593 10.4933C6.26258 10.627 6.29401 10.7796 6.39585 10.8813C6.49826 10.9819 6.64994 11.0134 6.78393 10.962L9.32985 9.94317C9.37505 9.92479 9.41616 9.89762 9.45081 9.86325L16.8589 2.45517C17.421 1.89285 17.421 0.981333 16.8589 0.419014Z" fill="#14121E"/>
</svg>
