<svg width="24" height="24" viewBox="0 0 24 24" fill="none" xmlns="http://www.w3.org/2000/svg">
<path fill-rule="evenodd" clip-rule="evenodd" d="M12.7071 0.293031L23.7071 11.293C23.993 11.579 24.0785 12.0091 23.9237 12.3827C23.769 12.7563 23.4045 12.9999 23.0001 13H21.7501C21.612 13 21.5001 13.112 21.5001 13.25V23C21.5001 23.5523 21.0523 24 20.5001 24H14.7501C14.612 24 14.5001 23.8881 14.5001 23.75V19C14.5001 17.6193 13.3808 16.5 12.0001 16.5C10.6193 16.5 9.50006 17.6193 9.50006 19V23.75C9.50006 23.8881 9.38813 24 9.25006 24H3.50006C2.94778 24 2.50006 23.5523 2.50006 23V13.25C2.50006 13.112 2.38813 13 2.25006 13H1.00006C0.595664 12.9999 0.231126 12.7563 0.0763818 12.3827C-0.0783621 12.0091 0.0071519 11.579 0.29306 11.293L11.2931 0.293031C11.6836 -0.0973513 12.3166 -0.0973513 12.7071 0.293031ZM9.50006 9.50003C9.50006 10.8807 10.6193 12 12.0001 12C12.6631 12 13.299 11.7366 13.7678 11.2678C14.2367 10.799 14.5001 10.1631 14.5001 9.50003C14.5001 8.11932 13.3808 7.00003 12.0001 7.00003C10.6193 7.00003 9.50006 8.11932 9.50006 9.50003Z" fill="#14121E"/>
</svg>
