<svg width="22" height="5" viewBox="0 0 22 5" fill="none" xmlns="http://www.w3.org/2000/svg">
<path d="M3.05882 1.76471C2.62024 1.76471 2.26471 2.12024 2.26471 2.55882C2.26471 2.9974 2.62024 3.35294 3.05882 3.35294C3.4974 3.35294 3.85294 2.9974 3.85294 2.55882C3.85294 2.12024 3.4974 1.76471 3.05882 1.76471" stroke="#14121E" stroke-width="3.17647" stroke-linecap="round" stroke-linejoin="round"/>
<path d="M11 1.76471C10.5614 1.76471 10.2059 2.12024 10.2059 2.55882C10.2059 2.9974 10.5614 3.35294 11 3.35294C11.4386 3.35294 11.7941 2.9974 11.7941 2.55882C11.7941 2.12024 11.4386 1.76471 11 1.76471" stroke="#14121E" stroke-width="3.17647" stroke-linecap="round" stroke-linejoin="round"/>
<path d="M18.9411 1.76471C18.5026 1.76471 18.147 2.12024 18.147 2.55882C18.147 2.9974 18.5026 3.35294 18.9411 3.35294C19.3797 3.35294 19.7353 2.9974 19.7353 2.55882C19.7353 2.12024 19.3797 1.76471 18.9411 1.76471" stroke="#14121E" stroke-width="3.17647" stroke-linecap="round" stroke-linejoin="round"/>
</svg>
