<svg width="25" height="22" viewBox="0 0 25 22" fill="none" xmlns="http://www.w3.org/2000/svg">
<path d="M13.7856 16.8214H23.2142" stroke="#8492A2" stroke-width="2.35714" stroke-linecap="round" stroke-linejoin="round"/>
<path fill-rule="evenodd" clip-rule="evenodd" d="M13.7858 16.8214C13.7858 18.7739 12.2031 20.3568 10.2506 20.3571C8.29808 20.3574 6.71493 18.7749 6.71436 16.8224C6.71378 14.8699 8.29598 13.2865 10.2485 13.2856C11.1865 13.2852 12.0862 13.6576 12.7496 14.3207C13.4131 14.9838 13.7858 15.8834 13.7858 16.8214V16.8214Z" stroke="#8492A2" stroke-width="2.35714" stroke-linecap="round" stroke-linejoin="round"/>
<path d="M16.1429 5.03571H2" stroke="#8492A2" stroke-width="2.35714" stroke-linecap="round" stroke-linejoin="round"/>
<path fill-rule="evenodd" clip-rule="evenodd" d="M23.2143 5.03571C23.2143 3.0832 21.6316 1.50029 19.6791 1.5C17.7265 1.49971 16.1434 3.08215 16.1428 5.03467C16.1422 6.98718 17.7244 8.57056 19.677 8.57143C21.6299 8.57143 23.2134 6.98869 23.2143 5.03571Z" stroke="#8492A2" stroke-width="2.35714" stroke-linecap="round" stroke-linejoin="round"/>
</svg>
